<svg xmlns="http://www.w3.org/2000/svg" xmlns:xlink="http://www.w3.org/1999/xlink" width="754.91"
    height="754.91">
    <g transform="translate(-627.2644641849813 -283.9606299212598)">
        <g class="lucid-layer" display="block">
            <path
                d="M1351.18 661.42c0 191.34-155.12 346.45-346.46 346.45-191.34 0-346.46-155.1-346.46-346.45s155.12-346.46 346.46-346.46c191.34 0 346.46 155.1 346.46 346.46z"
                stroke="#5e5e5e" stroke-width="4" fill="#b2d6ef" filter="url(#a)" />
            <path
                d="M706.8 501.5c-2.35-2.35-2.35-6.15 0-8.5l116.94-116.95c2.35-2.34 6.15-2.34 8.5 0l36.3 36.3c2.33 2.34 2.33 6.14 0 8.5L751.57 537.78c-2.35 2.33-6.15 2.33-8.5 0z"
                stroke="#000" stroke-opacity="0" stroke-width="4" fill="#fff" fill-opacity="0" />
            <use xlink:href="#b"
                transform="matrix(0.7071067811865476,-0.7071067811865475,0.7071067811865475,0.7071067811865476,709.6214138439735,497.24669102858394) translate(-0.43209876543208736 33.22222222222222)" />
            <path
                d="M747.36 807.43c2.6-2.07 6.36-1.65 8.43.94l51.3 64.26c2.06 2.6 1.63 6.36-.96 8.43l-40.12 32.03c-2.6 2.06-6.36 1.63-8.43-.96l-51.3-64.26c-2.07-2.6-1.65-6.36.94-8.43z"
                stroke="#000" stroke-opacity="0" stroke-width="4" fill="#fff" fill-opacity="0" />
            <use xlink:href="#c"
                transform="matrix(0.623890894126044,0.7815114536758916,-0.7815114536758916,0.623890894126044,751.2579686338318,810.7088813279429) translate(20.11728395061729 31.638888888888886)" />
            <path
                d="M1222.92 388.4c2.54-2.13 6.32-1.8 8.45.75l106.05 126.92c2.12 2.54 1.78 6.33-.76 8.45l-55.76 46.6c-2.54 2.12-6.33 1.78-8.45-.76L1166.4 443.44c-2.13-2.55-1.8-6.33.75-8.45z"
                stroke="#000" stroke-opacity="0" stroke-width="4" fill="#fff" fill-opacity="0" />
            <use xlink:href="#d"
                transform="matrix(0.6411955252718109,0.7673775461735941,-0.7673775461735941,0.6411955252718109,1226.8907348369635,391.5875012843326) translate(27.092592592592602 43.638888888888886)" />
            <path
                d="M1221.18 855.4c-2.62-2-3.1-5.78-1.1-8.4l33.3-43.27c2.02-2.63 5.8-3.12 8.4-1.1l37.76 29.05c2.63 2.02 3.12 5.78 1.1 8.4l-33.3 43.28c-2 2.62-5.78 3.1-8.4 1.1z"
                stroke="#000" stroke-opacity="0" stroke-width="4" fill="#fff" fill-opacity="0" />
            <use xlink:href="#e"
                transform="matrix(0.6098035500843599,-0.7925526041244906,0.7925526041244906,0.6098035500843599,1223.441323701295,850.8351151632748) translate(12.987654320987659 31.138888888888886)" />
        </g>
        <g class="lucid-layer" display="block">
            <path
                d="M1272.87 665.67c0 147.86-119.86 267.72-267.7 267.72-147.87 0-267.73-119.87-267.73-267.73s119.86-267.72 267.72-267.72c147.85 0 267.7 119.86 267.7 267.72z"
                stroke="#5e5e5e" stroke-width="4" fill="#c7e8ac" filter="url(#f)" />
            <path
                d="M910.67 434.88c0-3.32 2.68-6 6-6h186.82c3.3 0 6 2.68 6 6v51c0 3.3-2.7 6-6 6H916.66c-3.32 0-6-2.7-6-6z"
                stroke="#000" stroke-opacity="0" stroke-width="3" fill="#fff" fill-opacity="0" />
            <use xlink:href="#g"
                transform="matrix(1,0,0,1,915.6682433732294,433.8766404199475) translate(1.5987654320987872 31.513888888888886)" />
            <use xlink:href="#h"
                transform="matrix(1,0,0,1,915.6682433732294,433.8766404199475) translate(80.5 31.513888888888886)" />
            <path
                d="M905.16 859.84c0-3.3 2.7-6 6-6H1109c3.3 0 6 2.7 6 6v51c0 3.3-2.7 6-6 6H911.15c-3.3 0-6-2.7-6-6z"
                stroke="#000" stroke-opacity="0" stroke-width="3" fill="#fff" fill-opacity="0" />
            <g>
                <use xlink:href="#i"
                    transform="matrix(1,0,0,1,910.1638334328196,858.8394400734599) translate(6.018518518518533 31.513888888888886)" />
            </g>
        </g>
        <g class="lucid-layer" display="block">
            <path
                d="M1178.38 665.67c0 95.67-77.55 173.23-173.22 173.23s-173.23-77.56-173.23-173.23c0-95.67 77.56-173.23 173.23-173.23 95.67 0 173.22 77.56 173.22 173.23z"
                stroke="#5e5e5e" stroke-width="4" fill="#ffbbb1" filter="url(#j)" />
            <path
                d="M832.8 520.96c0-3.3 2.68-6 6-6h333.58c3.32 0 6 2.7 6 6v48c0 3.3-2.68 6-6 6H838.8c-3.32 0-6-2.7-6-6z"
                stroke="#000" stroke-opacity="0" stroke-width="3" fill="#fff" fill-opacity="0" />
            <use xlink:href="#k"
                transform="matrix(1,0,0,1,837.7986363953963,519.9606299212599) translate(89.44444444444449 31.26388888888888)" />
            <use xlink:href="#l"
                transform="matrix(1,0,0,1,837.7986363953963,519.9606299212599) translate(155.03703703703704 31.26388888888888)" />
        </g>
        <g class="lucid-layer" display="block">
            <path
                d="M1099.64 669.45c0 52.18-42.3 94.5-94.48 94.5-52.2 0-94.5-42.32-94.5-94.5 0-52.2 42.3-94.5 94.5-94.5 52.18 0 94.48 42.3 94.48 94.5z"
                stroke="#5e5e5e" stroke-width="4" fill="#ffeca9" filter="url(#m)" />
            <path
                d="M910.67 640.96c0-3.3 2.68-6 6-6h176.97c3.32 0 6 2.7 6 6v58.87c0 3.3-2.68 6-6 6H916.67c-3.32 0-6-2.7-6-6z"
                stroke="#000" stroke-opacity="0" stroke-width="3" fill="#fff" fill-opacity="0" />
            <use xlink:href="#n"
                transform="matrix(1,0,0,1,915.66824337323,639.9606299212599) translate(33.45679012345683 36.32638888888887)" />
        </g>
        <g class="lucid-layer" display="block" stroke="#5e5e5e" stroke-width="4" fill="#5e5e5e">
            <path
                d="M722.12 665.65h43.34v-1.2l3.9 1.57-3.9 1.58v-1.2h-43.34zM802.55 665.65h43.35v-1.2l3.9 1.57-3.9 1.58v-1.2h-43.35zM883 664.94h43.33v-1.2l3.9 1.57-3.9 1.6v-1.2H883z" />
        </g>
        <defs>
            <filter id="a" filterUnits="objectBoundingBox" x="-.03" y="-.03" width="1.06"
                height="1.06">
                <feOffset result="offOut" in="SourceAlpha" dx="-1" />
                <feGaussianBlur result="blurOut" in="offOut" stdDeviation="10" />
                <feColorMatrix result="colorOut" in="blurOut"
                    values="0 0 0 0 0.2 0 0 0 0 0.2 0 0 0 0 0.2 0 0 0 1 0" />
                <feBlend in="SourceGraphic" in2="colorOut" />
            </filter>
            <path fill="#333"
                d="M199 0l-22-63H83L61 0H9l90-248h61L250 0h-51zm-33-102l-36-108c-10 38-24 72-36 108h72"
                id="o" />
            <path fill="#333"
                d="M135-194c53 0 70 44 70 98 0 56-19 98-73 100-31 1-45-17-59-34 3 33 2 69 2 105H25l-1-265h48c2 10 0 23 3 31 11-24 29-35 60-35zM114-30c33 0 39-31 40-66 0-38-9-64-40-64-56 0-55 130 0 130"
                id="p" />
            <path fill="#333" d="M25 0v-261h50V0H25" id="q" />
            <path fill="#333" d="M25-224v-37h50v37H25zM25 0v-190h50V0H25" id="r" />
            <path fill="#333"
                d="M190-63c-7 42-38 67-86 67-59 0-84-38-90-98-12-110 154-137 174-36l-49 2c-2-19-15-32-35-32-30 0-35 28-38 64-6 74 65 87 74 30"
                id="s" />
            <path fill="#333"
                d="M133-34C117-15 103 5 69 4 32 3 11-16 11-54c-1-60 55-63 116-61 1-26-3-47-28-47-18 1-26 9-28 27l-52-2c7-38 36-58 82-57s74 22 75 68l1 82c-1 14 12 18 25 15v27c-30 8-71 5-69-32zm-48 3c29 0 43-24 42-57-32 0-66-3-65 30 0 17 8 27 23 27"
                id="t" />
            <path fill="#333"
                d="M115-3C79 11 28 4 28-45v-112H4v-33h27l15-45h31v45h36v33H77v99c-1 23 16 31 38 25v30"
                id="u" />
            <path fill="#333"
                d="M110-194c64 0 96 36 96 99 0 64-35 99-97 99-61 0-95-36-95-99 0-62 34-99 96-99zm-1 164c35 0 45-28 45-65 0-40-10-65-43-65-34 0-45 26-45 65 0 36 10 65 43 65"
                id="v" />
            <path fill="#333"
                d="M135-194c87-1 58 113 63 194h-50c-7-57 23-157-34-157-59 0-34 97-39 157H25l-1-190h47c2 12-1 28 3 38 12-26 28-41 61-42"
                id="w" />
            <g id="b">
                <use transform="matrix(0.08641975308641973,0,0,0.08641975308641973,0,0)"
                    xlink:href="#o" />
                <use
                    transform="matrix(0.08641975308641973,0,0,0.08641975308641973,22.38271604938271,0)"
                    xlink:href="#p" />
                <use
                    transform="matrix(0.08641975308641973,0,0,0.08641975308641973,41.30864197530863,0)"
                    xlink:href="#p" />
                <use
                    transform="matrix(0.08641975308641973,0,0,0.08641975308641973,60.234567901234556,0)"
                    xlink:href="#q" />
                <use
                    transform="matrix(0.08641975308641973,0,0,0.08641975308641973,68.87654320987653,0)"
                    xlink:href="#r" />
                <use
                    transform="matrix(0.08641975308641973,0,0,0.08641975308641973,77.5185185185185,0)"
                    xlink:href="#s" />
                <use
                    transform="matrix(0.08641975308641973,0,0,0.08641975308641973,94.80246913580245,0)"
                    xlink:href="#t" />
                <use
                    transform="matrix(0.08641975308641973,0,0,0.08641975308641973,112.08641975308639,0)"
                    xlink:href="#u" />
                <use
                    transform="matrix(0.08641975308641973,0,0,0.08641975308641973,122.37037037037034,0)"
                    xlink:href="#r" />
                <use
                    transform="matrix(0.08641975308641973,0,0,0.08641975308641973,131.01234567901233,0)"
                    xlink:href="#v" />
                <use
                    transform="matrix(0.08641975308641973,0,0,0.08641975308641973,149.93827160493825,0)"
                    xlink:href="#w" />
            </g>
            <path fill="#333"
                d="M24-248c120-7 223 5 221 122C244-46 201 0 124 0H24v-248zM76-40c74 7 117-18 117-86 0-67-45-88-117-82v168"
                id="x" />
            <path fill="#333"
                d="M182-130c37 4 62 22 62 59C244 23 116-4 24 0v-248c84 5 203-23 205 63 0 31-19 50-47 55zM76-148c40-3 101 13 101-30 0-44-60-28-101-31v61zm0 110c48-3 116 14 116-37 0-48-69-32-116-35v72"
                id="y" />
            <g id="c">
                <use transform="matrix(0.08641975308641973,0,0,0.08641975308641973,0,0)"
                    xlink:href="#x" />
                <use
                    transform="matrix(0.08641975308641973,0,0,0.08641975308641973,22.38271604938271,0)"
                    xlink:href="#y" />
            </g>
            <path fill="#333"
                d="M240-174c0 40-23 61-54 70L253 0h-59l-57-94H76V0H24v-248c93 4 217-23 216 74zM76-134c48-2 112 12 112-38 0-48-66-32-112-35v73"
                id="z" />
            <path fill="#333"
                d="M185-48c-13 30-37 53-82 52C43 2 14-33 14-96s30-98 90-98c62 0 83 45 84 108H66c0 31 8 55 39 56 18 0 30-7 34-22zm-45-69c5-46-57-63-70-21-2 6-4 13-4 21h74"
                id="A" />
            <path fill="#333"
                d="M220-157c-53 9-28 100-34 157h-49v-107c1-27-5-49-29-50C55-147 81-57 75 0H25l-1-190h47c2 12-1 28 3 38 10-53 101-56 108 0 13-22 24-43 59-42 82 1 51 116 57 194h-49v-107c-1-25-5-48-29-50"
                id="B" />
            <g id="d">
                <use transform="matrix(0.08641975308641973,0,0,0.08641975308641973,0,0)"
                    xlink:href="#z" />
                <use
                    transform="matrix(0.08641975308641973,0,0,0.08641975308641973,22.38271604938271,0)"
                    xlink:href="#A" />
                <use
                    transform="matrix(0.08641975308641973,0,0,0.08641975308641973,39.66666666666666,0)"
                    xlink:href="#B" />
                <use
                    transform="matrix(0.08641975308641973,0,0,0.08641975308641973,67.32098765432097,0)"
                    xlink:href="#v" />
                <use
                    transform="matrix(0.08641975308641973,0,0,0.08641975308641973,86.2469135802469,0)"
                    xlink:href="#u" />
                <use
                    transform="matrix(0.08641975308641973,0,0,0.08641975308641973,96.53086419753085,0)"
                    xlink:href="#A" />
            </g>
            <path fill="#333"
                d="M238-95c0 69-44 99-111 99C63 4 22-25 22-93v-155h51v151c-1 38 19 59 55 60 90 1 49-130 58-211h52v153"
                id="C" />
            <path fill="#333" d="M24 0v-248h52V0H24" id="D" />
            <g id="e">
                <use transform="matrix(0.08641975308641973,0,0,0.08641975308641973,0,0)"
                    xlink:href="#C" />
                <use
                    transform="matrix(0.08641975308641973,0,0,0.08641975308641973,22.38271604938271,0)"
                    xlink:href="#D" />
            </g>
            <filter id="f" filterUnits="objectBoundingBox" x="-.04" y="-.04" width="1.07"
                height="1.07">
                <feOffset result="offOut" in="SourceAlpha" dx="-1" />
                <feGaussianBlur result="blurOut" in="offOut" stdDeviation="10" />
                <feColorMatrix result="colorOut" in="blurOut"
                    values="0 0 0 0 0.2 0 0 0 0 0.2 0 0 0 0 0.2 0 0 0 1 0" />
                <feBlend in="SourceGraphic" in2="colorOut" />
            </filter>
            <path fill="#333" d="M147 0H94L2-248h55l64 206c17-72 42-137 63-206h54" id="E" />
            <path fill="#333"
                d="M231 0h-52l-39-155L100 0H48L-1-190h46L77-45c9-52 24-97 36-145h53l37 145 32-145h46"
                id="F" />
            <g id="g">
                <use transform="matrix(0.08641975308641973,0,0,0.08641975308641973,0,0)"
                    xlink:href="#E" />
                <use
                    transform="matrix(0.08641975308641973,0,0,0.08641975308641973,20.1358024691358,0)"
                    xlink:href="#r" />
                <use
                    transform="matrix(0.08641975308641973,0,0,0.08641975308641973,28.77777777777777,0)"
                    xlink:href="#A" />
                <use
                    transform="matrix(0.08641975308641973,0,0,0.08641975308641973,46.06172839506172,0)"
                    xlink:href="#F" />
            </g>
            <path fill="#333"
                d="M230 0l2-204L168 0h-37L68-204 70 0H24v-248h70l56 185 57-185h69V0h-46" id="G" />
            <path fill="#333"
                d="M88-194c31-1 46 15 58 34l-1-101h50l1 261h-48c-2-10 0-23-3-31C134-8 116 4 84 4 32 4 16-41 15-95c0-56 19-97 73-99zm17 164c33 0 40-30 41-66 1-37-9-64-41-64s-38 30-39 65c0 43 13 65 39 65"
                id="H" />
            <path fill="#333"
                d="M137-138c1-29-70-34-71-4 15 46 118 7 119 86 1 83-164 76-172 9l43-7c4 19 20 25 44 25 33 8 57-30 24-41C81-84 22-81 20-136c-2-80 154-74 161-7"
                id="I" />
            <g id="h">
                <use transform="matrix(0.08641975308641973,0,0,0.08641975308641973,0,0)"
                    xlink:href="#G" />
                <use
                    transform="matrix(0.08641975308641973,0,0,0.08641975308641973,25.8395061728395,0)"
                    xlink:href="#v" />
                <use
                    transform="matrix(0.08641975308641973,0,0,0.08641975308641973,44.765432098765416,0)"
                    xlink:href="#H" />
                <use
                    transform="matrix(0.08641975308641973,0,0,0.08641975308641973,63.69135802469135,0)"
                    xlink:href="#A" />
                <use
                    transform="matrix(0.08641975308641973,0,0,0.08641975308641973,80.97530864197529,0)"
                    xlink:href="#q" />
                <use
                    transform="matrix(0.08641975308641973,0,0,0.08641975308641973,89.61728395061726,0)"
                    xlink:href="#I" />
            </g>
            <path fill="#232629"
                d="M240-174c0 40-23 61-54 70L253 0h-59l-57-94H76V0H24v-248c93 4 217-23 216 74zM76-134c48-2 112 12 112-38 0-48-66-32-112-35v73"
                id="J" />
            <path fill="#232629"
                d="M185-48c-13 30-37 53-82 52C43 2 14-33 14-96s30-98 90-98c62 0 83 45 84 108H66c0 31 8 55 39 56 18 0 30-7 34-22zm-45-69c5-46-57-63-70-21-2 6-4 13-4 21h74"
                id="K" />
            <path fill="#232629"
                d="M135-194c53 0 70 44 70 98 0 56-19 98-73 100-31 1-45-17-59-34 3 33 2 69 2 105H25l-1-265h48c2 10 0 23 3 31 11-24 29-35 60-35zM114-30c33 0 39-31 40-66 0-38-9-64-40-64-56 0-55 130 0 130"
                id="L" />
            <path fill="#232629"
                d="M110-194c64 0 96 36 96 99 0 64-35 99-97 99-61 0-95-36-95-99 0-62 34-99 96-99zm-1 164c35 0 45-28 45-65 0-40-10-65-43-65-34 0-45 26-45 65 0 36 10 65 43 65"
                id="M" />
            <path fill="#232629"
                d="M137-138c1-29-70-34-71-4 15 46 118 7 119 86 1 83-164 76-172 9l43-7c4 19 20 25 44 25 33 8 57-30 24-41C81-84 22-81 20-136c-2-80 154-74 161-7"
                id="N" />
            <path fill="#232629" d="M25-224v-37h50v37H25zM25 0v-190h50V0H25" id="O" />
            <path fill="#232629"
                d="M115-3C79 11 28 4 28-45v-112H4v-33h27l15-45h31v45h36v33H77v99c-1 23 16 31 38 25v30"
                id="P" />
            <path fill="#232629"
                d="M135-150c-39-12-60 13-60 57V0H25l-1-190h47c2 13-1 29 3 40 6-28 27-53 61-41v41"
                id="Q" />
            <g id="i">
                <use transform="matrix(0.08641975308641973,0,0,0.08641975308641973,0,0)"
                    xlink:href="#J" />
                <use
                    transform="matrix(0.08641975308641973,0,0,0.08641975308641973,22.38271604938271,0)"
                    xlink:href="#K" />
                <use
                    transform="matrix(0.08641975308641973,0,0,0.08641975308641973,39.66666666666666,0)"
                    xlink:href="#L" />
                <use
                    transform="matrix(0.08641975308641973,0,0,0.08641975308641973,58.59259259259258,0)"
                    xlink:href="#M" />
                <use
                    transform="matrix(0.08641975308641973,0,0,0.08641975308641973,77.5185185185185,0)"
                    xlink:href="#N" />
                <use
                    transform="matrix(0.08641975308641973,0,0,0.08641975308641973,94.80246913580245,0)"
                    xlink:href="#O" />
                <use
                    transform="matrix(0.08641975308641973,0,0,0.08641975308641973,103.44444444444443,0)"
                    xlink:href="#P" />
                <use
                    transform="matrix(0.08641975308641973,0,0,0.08641975308641973,113.72839506172836,0)"
                    xlink:href="#M" />
                <use
                    transform="matrix(0.08641975308641973,0,0,0.08641975308641973,132.6543209876543,0)"
                    xlink:href="#Q" />
                <use
                    transform="matrix(0.08641975308641973,0,0,0.08641975308641973,144.75308641975306,0)"
                    xlink:href="#O" />
                <use
                    transform="matrix(0.08641975308641973,0,0,0.08641975308641973,153.39506172839504,0)"
                    xlink:href="#K" />
                <use
                    transform="matrix(0.08641975308641973,0,0,0.08641975308641973,170.67901234567898,0)"
                    xlink:href="#N" />
            </g>
            <filter id="j" filterUnits="objectBoundingBox" x="-.06" y="-.06" width="1.12"
                height="1.12">
                <feOffset result="offOut" in="SourceAlpha" dx="-1" />
                <feGaussianBlur result="blurOut" in="offOut" stdDeviation="10" />
                <feColorMatrix result="colorOut" in="blurOut"
                    values="0 0 0 0 0.2 0 0 0 0 0.2 0 0 0 0 0.2 0 0 0 1 0" />
                <feBlend in="SourceGraphic" in2="colorOut" />
            </filter>
            <g id="k">
                <use transform="matrix(0.0864197530864197,0,0,0.0864197530864197,0,0)"
                    xlink:href="#C" />
                <use
                    transform="matrix(0.0864197530864197,0,0,0.0864197530864197,22.382716049382704,0)"
                    xlink:href="#I" />
                <use
                    transform="matrix(0.0864197530864197,0,0,0.0864197530864197,39.66666666666664,0)"
                    xlink:href="#A" />
            </g>
            <path fill="#333"
                d="M67-125c0 53 21 87 73 88 37 1 54-22 65-47l45 17C233-25 199 4 140 4 58 4 20-42 15-125 8-235 124-281 211-232c18 10 29 29 36 50l-46 12c-8-25-30-41-62-41-52 0-71 34-72 86"
                id="R" />
            <g id="l">
                <use transform="matrix(0.0864197530864197,0,0,0.0864197530864197,0,0)"
                    xlink:href="#R" />
                <use
                    transform="matrix(0.0864197530864197,0,0,0.0864197530864197,22.382716049382704,0)"
                    xlink:href="#t" />
                <use
                    transform="matrix(0.0864197530864197,0,0,0.0864197530864197,39.66666666666664,0)"
                    xlink:href="#I" />
                <use
                    transform="matrix(0.0864197530864197,0,0,0.0864197530864197,56.950617283950585,0)"
                    xlink:href="#A" />
                <use
                    transform="matrix(0.0864197530864197,0,0,0.0864197530864197,74.23456790123453,0)"
                    xlink:href="#I" />
            </g>
            <filter id="m" filterUnits="objectBoundingBox" x="-.11" y="-.11" width="1.21"
                height="1.21">
                <feOffset result="offOut" in="SourceAlpha" dx="-1" />
                <feGaussianBlur result="blurOut" in="offOut" stdDeviation="10" />
                <feColorMatrix result="colorOut" in="blurOut"
                    values="0 0 0 0 0.2 0 0 0 0 0.2 0 0 0 0 0.2 0 0 0 1 0" />
                <feBlend in="SourceGraphic" in2="colorOut" />
            </filter>
            <path fill="#333" d="M24 0v-248h195v40H76v63h132v40H76v65h150V0H24" id="S" />
            <g id="n">
                <use transform="matrix(0.08641975308641969,0,0,0.08641975308641969,0,0)"
                    xlink:href="#S" />
                <use
                    transform="matrix(0.08641975308641969,0,0,0.08641975308641969,20.740740740740726,0)"
                    xlink:href="#w" />
                <use
                    transform="matrix(0.08641975308641969,0,0,0.08641975308641969,39.66666666666664,0)"
                    xlink:href="#u" />
                <use
                    transform="matrix(0.08641975308641969,0,0,0.08641975308641969,49.950617283950585,0)"
                    xlink:href="#r" />
                <use
                    transform="matrix(0.08641975308641969,0,0,0.08641975308641969,58.59259259259255,0)"
                    xlink:href="#u" />
                <use
                    transform="matrix(0.08641975308641969,0,0,0.08641975308641969,68.8765432098765,0)"
                    xlink:href="#r" />
                <use
                    transform="matrix(0.08641975308641969,0,0,0.08641975308641969,77.51851851851848,0)"
                    xlink:href="#A" />
                <use
                    transform="matrix(0.08641975308641969,0,0,0.08641975308641969,94.8024691358024,0)"
                    xlink:href="#I" />
            </g>
        </defs>
    </g>
</svg>
