<svg xmlns="http://www.w3.org/2000/svg" xmlns:xlink="http://www.w3.org/1999/xlink" xmlns:lucid="lucid" width="692" height="895"><g transform="translate(-1034 -51)" lucid:page-tab-id="0_0"><g filter="url(#a)"><path d="M1080 102c0-1.1.9-2 2-2h196c1.1 0 2 .9 2 2v96c0 1.1-.9 2-2 2h-196c-1.1 0-2-.9-2-2z" stroke="#4881b3" stroke-width="3" fill="#ffbbb1"/><use xlink:href="#b" transform="matrix(1,0,0,1,1088,108) translate(46.382716049382715 46.44444444444444)"/></g><g filter="url(#a)"><path d="M1480 102c0-1.1.9-2 2-2h196c1.1 0 2 .9 2 2v96c0 1.1-.9 2-2 2h-196c-1.1 0-2-.9-2-2z" stroke="#4881b3" stroke-width="3" fill="#ffbbb1"/><use xlink:href="#c" transform="matrix(1,0,0,1,1488,108) translate(33.574999999999996 34.8)"/><use xlink:href="#d" transform="matrix(1,0,0,1,1488,108) translate(45.12499999999999 56.4)"/></g><path d="M1283 150h192.77" stroke="#4881b3" stroke-width="3" fill="none"/><path d="M1283.04 151.5h-1.54v-3h1.54z" stroke="#4881b3" stroke-width=".05" fill="#4881b3"/><path d="M1458.34 160.18l17.2-10.18-17.2-10.18" stroke="#4881b3" stroke-width="3" fill="none"/><g filter="url(#a)"><path d="M1280 322c0-1.1.9-2 2-2h196c1.1 0 2 .9 2 2v96c0 1.1-.9 2-2 2h-196c-1.1 0-2-.9-2-2z" stroke="#4881b3" stroke-width="3" fill="#c7e8ac"/><use xlink:href="#e" transform="matrix(1,0,0,1,1288,328) translate(20.51851851851852 46.44444444444444)"/></g><path d="M1380 317v-51c0-3.3 2.7-6 6-6h188c3.3 0 6-2.7 6-6v-26.53" stroke="#4881b3" stroke-width="3" fill="none"/><path d="M1381.5 318.5h-3v-1.54h3z" stroke="#4881b3" stroke-width=".05" fill="#4881b3"/><path d="M1580 204.45l12.73 21.52h-25.46z" stroke="#4881b3" stroke-width="3" fill="#fff"/><g filter="url(#f)"><path d="M1092 551.75v-.06V541.74c0-1.1.9-2 2-2h184c1.1 0 2 .9 2 2v104c0 1.1-.9 2-2 2h-9.94c-.03 0-.06-.03-.06-.06V553.74c0-1.1-.9-2-2-2h-174z" stroke="#4881b3" stroke-width="3" fill="#c7e8ac"/><path d="M1080 553.75c0-1.1.9-2 2-2h184c1.1 0 2 .9 2 2v104c0 1.1-.9 2-2 2h-184c-1.1 0-2-.9-2-2z" stroke="#4881b3" stroke-width="3" fill="#c7e8ac"/><use xlink:href="#c" transform="matrix(1,0,0,1,1080,551.75) translate(35.57999999999999 51.9)"/><use xlink:href="#g" transform="matrix(1,0,0,1,1080,551.75) translate(11.180000000000001 73.5)"/></g><g filter="url(#f)"><path d="M1492 551.75v-.06V541.74c0-1.1.9-2 2-2h184c1.1 0 2 .9 2 2v104c0 1.1-.9 2-2 2h-9.94c-.03 0-.06-.03-.06-.06V553.74c0-1.1-.9-2-2-2h-174z" stroke="#4881b3" stroke-width="3" fill="#c7e8ac"/><path d="M1480 553.75c0-1.1.9-2 2-2h184c1.1 0 2 .9 2 2v104c0 1.1-.9 2-2 2h-184c-1.1 0-2-.9-2-2z" stroke="#4881b3" stroke-width="3" fill="#c7e8ac"/><use xlink:href="#c" transform="matrix(1,0,0,1,1480,551.75) translate(35.57999999999999 51.9)"/><use xlink:href="#h" transform="matrix(1,0,0,1,1480,551.75) translate(20.654999999999994 73.5)"/></g><path d="M1380 423v50.88c0 3.3-2.7 6-6 6h-188c-3.3 0-6 2.68-6 6v49.64" stroke="#4881b3" stroke-width="3" fill="none"/><path d="M1381.5 423.04h-3v-1.54h3z" stroke="#4881b3" stroke-width=".05" fill="#4881b3"/><path d="M1169.82 518.1l10.18 17.2 10.18-17.2M1380 423v50.88c0 3.3 2.7 6 6 6h188c3.3 0 6 2.68 6 6v49.64" stroke="#4881b3" stroke-width="3" fill="none"/><path d="M1381.5 423.04h-3v-1.54h3z" stroke="#4881b3" stroke-width=".05" fill="#4881b3"/><path d="M1569.82 518.1l10.18 17.2 10.18-17.2" stroke="#4881b3" stroke-width="3" fill="none"/><g filter="url(#f)"><path d="M1092 791.5v-.06-9.94c0-1.1.9-2 2-2h184c1.1 0 2 .9 2 2v104c0 1.1-.9 2-2 2h-9.94c-.03 0-.06-.03-.06-.06V793.5c0-1.1-.9-2-2-2h-174z" stroke="#4881b3" stroke-width="3" fill="#c1e4f7"/><path d="M1080 793.5c0-1.1.9-2 2-2h184c1.1 0 2 .9 2 2v104c0 1.1-.9 2-2 2h-184c-1.1 0-2-.9-2-2z" stroke="#4881b3" stroke-width="3" fill="#c1e4f7"/><use xlink:href="#i" transform="matrix(1,0,0,1,1080,791.5) translate(32.055 63.15)"/></g><g filter="url(#f)"><path d="M1492 791.5v-.06-9.94c0-1.1.9-2 2-2h184c1.1 0 2 .9 2 2v104c0 1.1-.9 2-2 2h-9.94c-.03 0-.06-.03-.06-.06V793.5c0-1.1-.9-2-2-2h-174z" stroke="#4881b3" stroke-width="3" fill="#c1e4f7"/><path d="M1480 793.5c0-1.1.9-2 2-2h184c1.1 0 2 .9 2 2v104c0 1.1-.9 2-2 2h-184c-1.1 0-2-.9-2-2z" stroke="#4881b3" stroke-width="3" fill="#c1e4f7"/><use xlink:href="#j" transform="matrix(1,0,0,1,1480,791.5) translate(34.07999999999999 63.15)"/></g><path d="M1180 776.5v-89.28" stroke="#4881b3" stroke-width="3" fill="none"/><path d="M1181.5 778h-3v-1.54h3z" stroke="#4881b3" stroke-width=".05" fill="#4881b3"/><path d="M1180 664.2l12.73 21.52h-25.46z" stroke="#4881b3" stroke-width="3" fill="#fff"/><path d="M1580 776.5v-89.28" stroke="#4881b3" stroke-width="3" fill="none"/><path d="M1581.5 778h-3v-1.54h3z" stroke="#4881b3" stroke-width=".05" fill="#4881b3"/><path d="M1580 664.2l12.73 21.52h-25.46z" stroke="#4881b3" stroke-width="3" fill="#fff"/><defs><path fill="#1d262b" d="M232-93c-1 65-40 97-104 97C67 4 28-28 28-90v-158h33c8 89-33 224 67 224 102 0 64-133 71-224h33v155" id="k"/><path fill="#1d262b" d="M135-143c-3-34-86-38-87 0 15 53 115 12 119 90S17 21 10-45l28-5c4 36 97 45 98 0-10-56-113-15-118-90-4-57 82-63 122-42 12 7 21 19 24 35" id="l"/><path fill="#1d262b" d="M100-194c63 0 86 42 84 106H49c0 40 14 67 53 68 26 1 43-12 49-29l28 8c-11 28-37 45-77 45C44 4 14-33 15-96c1-61 26-98 85-98zm52 81c6-60-76-77-97-28-3 7-6 17-6 28h103" id="m"/><path fill="#1d262b" d="M212-179c-10-28-35-45-73-45-59 0-87 40-87 99 0 60 29 101 89 101 43 0 62-24 78-52l27 14C228-24 195 4 139 4 59 4 22-46 18-125c-6-104 99-153 187-111 19 9 31 26 39 46" id="n"/><path fill="#1d262b" d="M141-36C126-15 110 5 73 4 37 3 15-17 15-53c-1-64 63-63 125-63 3-35-9-54-41-54-24 1-41 7-42 31l-33-3c5-37 33-52 76-52 45 0 72 20 72 64v82c-1 20 7 32 28 27v20c-31 9-61-2-59-35zM48-53c0 20 12 33 32 33 41-3 63-29 60-74-43 2-92-5-92 41" id="o"/><g id="b"><use transform="matrix(0.06172839506172839,0,0,0.06172839506172839,0,0)" xlink:href="#k"/><use transform="matrix(0.06172839506172839,0,0,0.06172839506172839,15.987654320987653,0)" xlink:href="#l"/><use transform="matrix(0.06172839506172839,0,0,0.06172839506172839,27.098765432098766,0)" xlink:href="#m"/><use transform="matrix(0.06172839506172839,0,0,0.06172839506172839,39.44444444444444,0)" xlink:href="#n"/><use transform="matrix(0.06172839506172839,0,0,0.06172839506172839,55.432098765432094,0)" xlink:href="#o"/><use transform="matrix(0.06172839506172839,0,0,0.06172839506172839,67.77777777777777,0)" xlink:href="#l"/><use transform="matrix(0.06172839506172839,0,0,0.06172839506172839,78.88888888888889,0)" xlink:href="#m"/></g><filter id="a" filterUnits="objectBoundingBox" x="-.1" y="-.2" width="1.2" height="1.4"><feOffset result="offOut" in="SourceAlpha" dx="-1"/><feGaussianBlur result="blurOut" in="offOut" stdDeviation="10"/><feColorMatrix result="colorOut" in="blurOut" values="0 0 0 0 0.2 0 0 0 0 0.2 0 0 0 0 0.2 0 0 0 1 0"/><feBlend in="SourceGraphic" in2="colorOut"/></filter><path fill="#1d262b" d="M15-91v-56l181-69v40L49-119l147 57v40" id="p"/><path fill="#1d262b" d="M25-224v-37h50v37H25zM25 0v-190h50V0H25" id="q"/><path fill="#1d262b" d="M135-194c87-1 58 113 63 194h-50c-7-57 23-157-34-157-59 0-34 97-39 157H25l-1-190h47c2 12-1 28 3 38 12-26 28-41 61-42" id="r"/><path fill="#1d262b" d="M115-3C79 11 28 4 28-45v-112H4v-33h27l15-45h31v45h36v33H77v99c-1 23 16 31 38 25v30" id="s"/><path fill="#1d262b" d="M185-48c-13 30-37 53-82 52C43 2 14-33 14-96s30-98 90-98c62 0 83 45 84 108H66c0 31 8 55 39 56 18 0 30-7 34-22zm-45-69c5-46-57-63-70-21-2 6-4 13-4 21h74" id="t"/><path fill="#1d262b" d="M135-150c-39-12-60 13-60 57V0H25l-1-190h47c2 13-1 29 3 40 6-28 27-53 61-41v41" id="u"/><path fill="#1d262b" d="M121-226c-27-7-43 5-38 36h38v33H83V0H34v-157H6v-33h28c-9-59 32-81 87-68v32" id="v"/><path fill="#1d262b" d="M133-34C117-15 103 5 69 4 32 3 11-16 11-54c-1-60 55-63 116-61 1-26-3-47-28-47-18 1-26 9-28 27l-52-2c7-38 36-58 82-57s74 22 75 68l1 82c-1 14 12 18 25 15v27c-30 8-71 5-69-32zm-48 3c29 0 43-24 42-57-32 0-66-3-65 30 0 17 8 27 23 27" id="w"/><path fill="#1d262b" d="M190-63c-7 42-38 67-86 67-59 0-84-38-90-98-12-110 154-137 174-36l-49 2c-2-19-15-32-35-32-30 0-35 28-38 64-6 74 65 87 74 30" id="x"/><path fill="#1d262b" d="M15-22v-40l146-57-146-57v-40l181 69v56" id="y"/><g id="c"><use transform="matrix(0.05,0,0,0.05,0,0)" xlink:href="#p"/><use transform="matrix(0.05,0,0,0.05,10.5,0)" xlink:href="#p"/><use transform="matrix(0.05,0,0,0.05,21,0)" xlink:href="#q"/><use transform="matrix(0.05,0,0,0.05,26,0)" xlink:href="#r"/><use transform="matrix(0.05,0,0,0.05,36.95,0)" xlink:href="#s"/><use transform="matrix(0.05,0,0,0.05,42.900000000000006,0)" xlink:href="#t"/><use transform="matrix(0.05,0,0,0.05,52.900000000000006,0)" xlink:href="#u"/><use transform="matrix(0.05,0,0,0.05,59.900000000000006,0)" xlink:href="#v"/><use transform="matrix(0.05,0,0,0.05,65.85000000000001,0)" xlink:href="#w"/><use transform="matrix(0.05,0,0,0.05,75.85000000000001,0)" xlink:href="#x"/><use transform="matrix(0.05,0,0,0.05,85.85000000000001,0)" xlink:href="#t"/><use transform="matrix(0.05,0,0,0.05,95.85000000000001,0)" xlink:href="#y"/><use transform="matrix(0.05,0,0,0.05,106.35000000000001,0)" xlink:href="#y"/></g><path fill="#1d262b" d="M240-174c0 40-23 61-54 70L253 0h-59l-57-94H76V0H24v-248c93 4 217-23 216 74zM76-134c48-2 112 12 112-38 0-48-66-32-112-35v73" id="z"/><path fill="#1d262b" d="M135-194c53 0 70 44 70 98 0 56-19 98-73 100-31 1-45-17-59-34 3 33 2 69 2 105H25l-1-265h48c2 10 0 23 3 31 11-24 29-35 60-35zM114-30c33 0 39-31 40-66 0-38-9-64-40-64-56 0-55 130 0 130" id="A"/><path fill="#1d262b" d="M110-194c64 0 96 36 96 99 0 64-35 99-97 99-61 0-95-36-95-99 0-62 34-99 96-99zm-1 164c35 0 45-28 45-65 0-40-10-65-43-65-34 0-45 26-45 65 0 36 10 65 43 65" id="B"/><path fill="#1d262b" d="M137-138c1-29-70-34-71-4 15 46 118 7 119 86 1 83-164 76-172 9l43-7c4 19 20 25 44 25 33 8 57-30 24-41C81-84 22-81 20-136c-2-80 154-74 161-7" id="C"/><path fill="#1d262b" d="M123 10C108 53 80 86 19 72V37c35 8 53-11 59-39L3-190h52l48 148c12-52 28-100 44-148h51" id="D"/><g id="d"><use transform="matrix(0.05,0,0,0.05,0,0)" xlink:href="#z"/><use transform="matrix(0.05,0,0,0.05,12.950000000000001,0)" xlink:href="#t"/><use transform="matrix(0.05,0,0,0.05,22.950000000000003,0)" xlink:href="#A"/><use transform="matrix(0.05,0,0,0.05,33.900000000000006,0)" xlink:href="#B"/><use transform="matrix(0.05,0,0,0.05,44.85000000000001,0)" xlink:href="#C"/><use transform="matrix(0.05,0,0,0.05,54.85,0)" xlink:href="#q"/><use transform="matrix(0.05,0,0,0.05,59.85,0)" xlink:href="#s"/><use transform="matrix(0.05,0,0,0.05,65.80000000000001,0)" xlink:href="#B"/><use transform="matrix(0.05,0,0,0.05,76.75000000000001,0)" xlink:href="#u"/><use transform="matrix(0.05,0,0,0.05,83.75000000000001,0)" xlink:href="#D"/></g><path fill="#1d262b" d="M233-177c-1 41-23 64-60 70L243 0h-38l-65-103H63V0H30v-248c88 3 205-21 203 71zM63-129c60-2 137 13 137-47 0-61-80-42-137-45v92" id="E"/><path fill="#1d262b" d="M115-194c55 1 70 41 70 98S169 2 115 4C84 4 66-9 55-30l1 105H24l-1-265h31l2 30c10-21 28-34 59-34zm-8 174c40 0 45-34 45-75s-6-73-45-74c-42 0-51 32-51 76 0 43 10 73 51 73" id="F"/><path fill="#1d262b" d="M100-194c62-1 85 37 85 99 1 63-27 99-86 99S16-35 15-95c0-66 28-99 85-99zM99-20c44 1 53-31 53-75 0-43-8-75-51-75s-53 32-53 75 10 74 51 75" id="G"/><path fill="#1d262b" d="M24-231v-30h32v30H24zM24 0v-190h32V0H24" id="H"/><path fill="#1d262b" d="M59-47c-2 24 18 29 38 22v24C64 9 27 4 27-40v-127H5v-23h24l9-43h21v43h35v23H59v120" id="I"/><path fill="#1d262b" d="M114-163C36-179 61-72 57 0H25l-1-190h30c1 12-1 29 2 39 6-27 23-49 58-41v29" id="J"/><path fill="#1d262b" d="M179-190L93 31C79 59 56 82 12 73V49c39 6 53-20 64-50L1-190h34L92-34l54-156h33" id="K"/><path fill="#1d262b" d="M33 0v-248h34V0H33" id="L"/><path fill="#1d262b" d="M210-169c-67 3-38 105-44 169h-31v-121c0-29-5-50-35-48C34-165 62-65 56 0H25l-1-190h30c1 10-1 24 2 32 10-44 99-50 107 0 11-21 27-35 58-36 85-2 47 119 55 194h-31v-121c0-29-5-49-35-48" id="M"/><g id="e"><use transform="matrix(0.06172839506172839,0,0,0.06172839506172839,0,0)" xlink:href="#E"/><use transform="matrix(0.06172839506172839,0,0,0.06172839506172839,15.987654320987653,0)" xlink:href="#m"/><use transform="matrix(0.06172839506172839,0,0,0.06172839506172839,28.333333333333332,0)" xlink:href="#F"/><use transform="matrix(0.06172839506172839,0,0,0.06172839506172839,40.67901234567901,0)" xlink:href="#G"/><use transform="matrix(0.06172839506172839,0,0,0.06172839506172839,53.02469135802469,0)" xlink:href="#l"/><use transform="matrix(0.06172839506172839,0,0,0.06172839506172839,64.1358024691358,0)" xlink:href="#H"/><use transform="matrix(0.06172839506172839,0,0,0.06172839506172839,69.01234567901234,0)" xlink:href="#I"/><use transform="matrix(0.06172839506172839,0,0,0.06172839506172839,75.18518518518518,0)" xlink:href="#G"/><use transform="matrix(0.06172839506172839,0,0,0.06172839506172839,87.53086419753086,0)" xlink:href="#J"/><use transform="matrix(0.06172839506172839,0,0,0.06172839506172839,94.87654320987654,0)" xlink:href="#K"/><use transform="matrix(0.06172839506172839,0,0,0.06172839506172839,105.98765432098766,0)" xlink:href="#L"/><use transform="matrix(0.06172839506172839,0,0,0.06172839506172839,112.1604938271605,0)" xlink:href="#M"/><use transform="matrix(0.06172839506172839,0,0,0.06172839506172839,130.6172839506173,0)" xlink:href="#F"/></g><path fill="#1d262b" d="M220-157c-53 9-28 100-34 157h-49v-107c1-27-5-49-29-50C55-147 81-57 75 0H25l-1-190h47c2 12-1 28 3 38 10-53 101-56 108 0 13-22 24-43 59-42 82 1 51 116 57 194h-49v-107c-1-25-5-48-29-50" id="N"/><path fill="#1d262b" d="M24-248c120-7 223 5 221 122C244-46 201 0 124 0H24v-248zM76-40c74 7 117-18 117-86 0-67-45-88-117-82v168" id="O"/><path fill="#1d262b" d="M169-182c-1-43-94-46-97-3 18 66 151 10 154 114 3 95-165 93-204 36-6-8-10-19-12-30l50-8c3 46 112 56 116 5-17-69-150-10-154-114-4-87 153-88 188-35 5 8 8 18 10 28" id="P"/><path fill="#1d262b" d="M85 4C-2 5 27-109 22-190h50c7 57-23 150 33 157 60-5 35-97 40-157h50l1 190h-47c-2-12 1-28-3-38-12 25-28 42-61 42" id="Q"/><g id="g"><use transform="matrix(0.05,0,0,0.05,0,0)" xlink:href="#z"/><use transform="matrix(0.05,0,0,0.05,12.950000000000001,0)" xlink:href="#t"/><use transform="matrix(0.05,0,0,0.05,22.950000000000003,0)" xlink:href="#N"/><use transform="matrix(0.05,0,0,0.05,38.95,0)" xlink:href="#B"/><use transform="matrix(0.05,0,0,0.05,49.900000000000006,0)" xlink:href="#s"/><use transform="matrix(0.05,0,0,0.05,55.85,0)" xlink:href="#t"/><use transform="matrix(0.05,0,0,0.05,65.85000000000001,0)" xlink:href="#O"/><use transform="matrix(0.05,0,0,0.05,78.80000000000001,0)" xlink:href="#w"/><use transform="matrix(0.05,0,0,0.05,88.80000000000001,0)" xlink:href="#s"/><use transform="matrix(0.05,0,0,0.05,94.75000000000001,0)" xlink:href="#w"/><use transform="matrix(0.05,0,0,0.05,104.75,0)" xlink:href="#P"/><use transform="matrix(0.05,0,0,0.05,116.75,0)" xlink:href="#B"/><use transform="matrix(0.05,0,0,0.05,127.7,0)" xlink:href="#Q"/><use transform="matrix(0.05,0,0,0.05,138.65,0)" xlink:href="#u"/><use transform="matrix(0.05,0,0,0.05,145.65,0)" xlink:href="#x"/><use transform="matrix(0.05,0,0,0.05,155.65,0)" xlink:href="#t"/></g><filter id="f" filterUnits="objectBoundingBox" x="-.1" y="-.17" width="1.2" height="1.33"><feOffset result="offOut" in="SourceAlpha" dx="-1"/><feGaussianBlur result="blurOut" in="offOut" stdDeviation="10"/><feColorMatrix result="colorOut" in="blurOut" values="0 0 0 0 0.2 0 0 0 0 0.2 0 0 0 0 0.2 0 0 0 1 0"/><feBlend in="SourceGraphic" in2="colorOut"/></filter><path fill="#1d262b" d="M24 0v-248h52v208h133V0H24" id="R"/><path fill="#1d262b" d="M25 0v-261h50V0H25" id="S"/><g id="h"><use transform="matrix(0.05,0,0,0.05,0,0)" xlink:href="#R"/><use transform="matrix(0.05,0,0,0.05,10.950000000000001,0)" xlink:href="#B"/><use transform="matrix(0.05,0,0,0.05,21.900000000000002,0)" xlink:href="#x"/><use transform="matrix(0.05,0,0,0.05,31.900000000000002,0)" xlink:href="#w"/><use transform="matrix(0.05,0,0,0.05,41.900000000000006,0)" xlink:href="#S"/><use transform="matrix(0.05,0,0,0.05,46.900000000000006,0)" xlink:href="#O"/><use transform="matrix(0.05,0,0,0.05,59.85,0)" xlink:href="#w"/><use transform="matrix(0.05,0,0,0.05,69.85000000000001,0)" xlink:href="#s"/><use transform="matrix(0.05,0,0,0.05,75.80000000000001,0)" xlink:href="#w"/><use transform="matrix(0.05,0,0,0.05,85.80000000000001,0)" xlink:href="#P"/><use transform="matrix(0.05,0,0,0.05,97.80000000000001,0)" xlink:href="#B"/><use transform="matrix(0.05,0,0,0.05,108.75,0)" xlink:href="#Q"/><use transform="matrix(0.05,0,0,0.05,119.7,0)" xlink:href="#u"/><use transform="matrix(0.05,0,0,0.05,126.7,0)" xlink:href="#x"/><use transform="matrix(0.05,0,0,0.05,136.70000000000002,0)" xlink:href="#t"/></g><path fill="#1d262b" d="M205 0l-28-72H64L36 0H1l101-248h38L239 0h-34zm-38-99l-47-123c-12 45-31 82-46 123h93" id="T"/><path fill="#1d262b" d="M30-248c87 1 191-15 191 75 0 78-77 80-158 76V0H30v-248zm33 125c57 0 124 11 124-50 0-59-68-47-124-48v98" id="U"/><path fill="#1d262b" d="M30-248c118-7 216 8 213 122C240-48 200 0 122 0H30v-248zM63-27c89 8 146-16 146-99s-60-101-146-95v194" id="V"/><path fill="#1d262b" d="M185-189c-5-48-123-54-124 2 14 75 158 14 163 119 3 78-121 87-175 55-17-10-28-26-33-46l33-7c5 56 141 63 141-1 0-78-155-14-162-118-5-82 145-84 179-34 5 7 8 16 11 25" id="W"/><path fill="#1d262b" d="M84 4C-5 8 30-112 23-190h32v120c0 31 7 50 39 49 72-2 45-101 50-169h31l1 190h-30c-1-10 1-25-2-33-11 22-28 36-60 37" id="X"/><path fill="#1d262b" d="M96-169c-40 0-48 33-48 73s9 75 48 75c24 0 41-14 43-38l32 2c-6 37-31 61-74 61-59 0-76-41-82-99-10-93 101-131 147-64 4 7 5 14 7 22l-32 3c-4-21-16-35-41-35" id="Y"/><g id="i"><use transform="matrix(0.05,0,0,0.05,0,0)" xlink:href="#T"/><use transform="matrix(0.05,0,0,0.05,12,0)" xlink:href="#U"/><use transform="matrix(0.05,0,0,0.05,24,0)" xlink:href="#L"/><use transform="matrix(0.05,0,0,0.05,29,0)" xlink:href="#V"/><use transform="matrix(0.05,0,0,0.05,41.95,0)" xlink:href="#o"/><use transform="matrix(0.05,0,0,0.05,51.95,0)" xlink:href="#I"/><use transform="matrix(0.05,0,0,0.05,56.95,0)" xlink:href="#o"/><use transform="matrix(0.05,0,0,0.05,66.95,0)" xlink:href="#W"/><use transform="matrix(0.05,0,0,0.05,78.95,0)" xlink:href="#G"/><use transform="matrix(0.05,0,0,0.05,88.95,0)" xlink:href="#X"/><use transform="matrix(0.05,0,0,0.05,98.95,0)" xlink:href="#J"/><use transform="matrix(0.05,0,0,0.05,104.9,0)" xlink:href="#Y"/><use transform="matrix(0.05,0,0,0.05,113.9,0)" xlink:href="#m"/></g><path fill="#1d262b" d="M160-131c35 5 61 23 61 61C221 17 115-2 30 0v-248c76 3 177-17 177 60 0 33-19 50-47 57zm-97-11c50-1 110 9 110-42 0-47-63-36-110-37v79zm0 115c55-2 124 14 124-45 0-56-70-42-124-44v89" id="Z"/><g id="j"><use transform="matrix(0.05,0,0,0.05,0,0)" xlink:href="#V"/><use transform="matrix(0.05,0,0,0.05,12.950000000000001,0)" xlink:href="#Z"/><use transform="matrix(0.05,0,0,0.05,24.950000000000003,0)" xlink:href="#V"/><use transform="matrix(0.05,0,0,0.05,37.900000000000006,0)" xlink:href="#o"/><use transform="matrix(0.05,0,0,0.05,47.900000000000006,0)" xlink:href="#I"/><use transform="matrix(0.05,0,0,0.05,52.900000000000006,0)" xlink:href="#o"/><use transform="matrix(0.05,0,0,0.05,62.900000000000006,0)" xlink:href="#W"/><use transform="matrix(0.05,0,0,0.05,74.9,0)" xlink:href="#G"/><use transform="matrix(0.05,0,0,0.05,84.9,0)" xlink:href="#X"/><use transform="matrix(0.05,0,0,0.05,94.9,0)" xlink:href="#J"/><use transform="matrix(0.05,0,0,0.05,100.85000000000001,0)" xlink:href="#Y"/><use transform="matrix(0.05,0,0,0.05,109.85000000000001,0)" xlink:href="#m"/></g></defs></g></svg>