<svg xmlns="http://www.w3.org/2000/svg" xmlns:xlink="http://www.w3.org/1999/xlink" width="670"
    height="592">
    <g transform="translate(-40 -60)">
        <g filter="url(#a)">
            <path d="M80 302c0-1.1.9-2 2-2h196c1.1 0 2 .9 2 2v96c0 1.1-.9 2-2 2H82c-1.1 0-2-.9-2-2z"
                stroke="#4881b3" stroke-width="3" fill="#c7e8ac" />
            <use xlink:href="#b"
                transform="matrix(1,0,0,1,88,308) translate(38.01851851851851 46.44444444444444)" />
        </g>
        <g filter="url(#a)">
            <path
                d="M460 302c0-1.1.9-2 2-2h196c1.1 0 2 .9 2 2v96c0 1.1-.9 2-2 2H462c-1.1 0-2-.9-2-2z"
                stroke="#4881b3" stroke-width="3" fill="#ffbbb1" />
            <use xlink:href="#c"
                transform="matrix(1,0,0,1,468,308) translate(46.382716049382715 46.44444444444444)" />
        </g>
        <g filter="url(#a)">
            <path
                d="M460 102c0-1.1.9-2 2-2h196c1.1 0 2 .9 2 2v96c0 1.1-.9 2-2 2H462c-1.1 0-2-.9-2-2z"
                stroke="#4881b3" stroke-width="3" fill="#ffbbb1" />
            <use xlink:href="#d"
                transform="matrix(1,0,0,1,468,108) translate(33.574999999999996 34.8)" />
            <use xlink:href="#e" transform="matrix(1,0,0,1,468,108) translate(44.675 56.4)" />
        </g>
        <g filter="url(#a)">
            <path
                d="M460 502c0-1.1.9-2 2-2h196c1.1 0 2 .9 2 2v96c0 1.1-.9 2-2 2H462c-1.1 0-2-.9-2-2z"
                stroke="#4881b3" stroke-width="3" fill="#ffbbb1" />
            <use xlink:href="#d"
                transform="matrix(1,0,0,1,468,508) translate(33.574999999999996 34.8)" />
            <use xlink:href="#f" transform="matrix(1,0,0,1,468,508) translate(52.15 56.4)" />
        </g>
        <path d="M180 297V156c0-3.3 2.7-6 6-6h246.53" stroke="#4881b3" stroke-width="3"
            fill="none" />
        <path d="M181.5 298.5h-3v-1.54h3z" stroke="#4881b3" stroke-width=".05" fill="#4881b3" />
        <path d="M455.55 150l-21.52 12.73v-25.46z" stroke="#4881b3" stroke-width="3" fill="#fff" />
        <path d="M560 297v-92.77" stroke="#4881b3" stroke-width="3" fill="none" />
        <path d="M561.5 298.5h-3v-1.54h3z" stroke="#4881b3" stroke-width=".05" fill="#4881b3" />
        <path d="M570.18 221.66L560 204.46l-10.18 17.2M560 403v69.53" stroke="#4881b3"
            stroke-width="3" fill="none" />
        <path d="M561.5 403.04h-3v-1.54h3z" stroke="#4881b3" stroke-width=".05" fill="#4881b3" />
        <path d="M560 495.55l-12.73-21.52h25.46z" stroke="#4881b3" stroke-width="3" fill="#fff" />
        <path d="M180 403v141c0 3.3 2.7 6 6 6h269.77" stroke="#4881b3" stroke-width="3"
            fill="none" />
        <path d="M181.5 403.04h-3v-1.54h3z" stroke="#4881b3" stroke-width=".05" fill="#4881b3" />
        <path d="M438.34 560.18l17.2-10.18-17.2-10.18" stroke="#4881b3" stroke-width="3"
            fill="none" />
        <defs>
            <path fill="#1d262b" d="M137 0h-34L2-248h35l83 218 83-218h36" id="g" />
            <path fill="#1d262b" d="M24-231v-30h32v30H24zM24 0v-190h32V0H24" id="h" />
            <path fill="#1d262b"
                d="M100-194c63 0 86 42 84 106H49c0 40 14 67 53 68 26 1 43-12 49-29l28 8c-11 28-37 45-77 45C44 4 14-33 15-96c1-61 26-98 85-98zm52 81c6-60-76-77-97-28-3 7-6 17-6 28h103"
                id="i" />
            <path fill="#1d262b"
                d="M206 0h-36l-40-164L89 0H53L-1-190h32L70-26l43-164h34l41 164 42-164h31" id="j" />
            <path fill="#1d262b"
                d="M240 0l2-218c-23 76-54 145-80 218h-23L58-218 59 0H30v-248h44l77 211c21-75 51-140 76-211h43V0h-30"
                id="k" />
            <path fill="#1d262b"
                d="M100-194c62-1 85 37 85 99 1 63-27 99-86 99S16-35 15-95c0-66 28-99 85-99zM99-20c44 1 53-31 53-75 0-43-8-75-51-75s-53 32-53 75 10 74 51 75"
                id="l" />
            <path fill="#1d262b"
                d="M85-194c31 0 48 13 60 33l-1-100h32l1 261h-30c-2-10 0-23-3-31C134-8 116 4 85 4 32 4 16-35 15-94c0-66 23-100 70-100zm9 24c-40 0-46 34-46 75 0 40 6 74 45 74 42 0 51-32 51-76 0-42-9-74-50-73"
                id="m" />
            <path fill="#1d262b" d="M24 0v-261h32V0H24" id="n" />
            <g id="b">
                <use transform="matrix(0.06172839506172839,0,0,0.06172839506172839,0,0)"
                    xlink:href="#g" />
                <use
                    transform="matrix(0.06172839506172839,0,0,0.06172839506172839,14.382716049382715,0)"
                    xlink:href="#h" />
                <use
                    transform="matrix(0.06172839506172839,0,0,0.06172839506172839,19.25925925925926,0)"
                    xlink:href="#i" />
                <use
                    transform="matrix(0.06172839506172839,0,0,0.06172839506172839,31.604938271604937,0)"
                    xlink:href="#j" />
                <use
                    transform="matrix(0.06172839506172839,0,0,0.06172839506172839,47.59259259259259,0)"
                    xlink:href="#k" />
                <use
                    transform="matrix(0.06172839506172839,0,0,0.06172839506172839,66.04938271604938,0)"
                    xlink:href="#l" />
                <use
                    transform="matrix(0.06172839506172839,0,0,0.06172839506172839,78.39506172839506,0)"
                    xlink:href="#m" />
                <use
                    transform="matrix(0.06172839506172839,0,0,0.06172839506172839,90.74074074074075,0)"
                    xlink:href="#i" />
                <use
                    transform="matrix(0.06172839506172839,0,0,0.06172839506172839,103.08641975308643,0)"
                    xlink:href="#n" />
            </g>
            <filter id="a" filterUnits="objectBoundingBox" x="-.1" y="-.2" width="1.2" height="1.4">
                <feOffset result="offOut" in="SourceAlpha" dx="-1" />
                <feGaussianBlur result="blurOut" in="offOut" stdDeviation="10" />
                <feColorMatrix result="colorOut" in="blurOut"
                    values="0 0 0 0 0.2 0 0 0 0 0.2 0 0 0 0 0.2 0 0 0 1 0" />
                <feBlend in="SourceGraphic" in2="colorOut" />
            </filter>
            <path fill="#1d262b"
                d="M232-93c-1 65-40 97-104 97C67 4 28-28 28-90v-158h33c8 89-33 224 67 224 102 0 64-133 71-224h33v155"
                id="o" />
            <path fill="#1d262b"
                d="M135-143c-3-34-86-38-87 0 15 53 115 12 119 90S17 21 10-45l28-5c4 36 97 45 98 0-10-56-113-15-118-90-4-57 82-63 122-42 12 7 21 19 24 35"
                id="p" />
            <path fill="#1d262b"
                d="M212-179c-10-28-35-45-73-45-59 0-87 40-87 99 0 60 29 101 89 101 43 0 62-24 78-52l27 14C228-24 195 4 139 4 59 4 22-46 18-125c-6-104 99-153 187-111 19 9 31 26 39 46"
                id="q" />
            <path fill="#1d262b"
                d="M141-36C126-15 110 5 73 4 37 3 15-17 15-53c-1-64 63-63 125-63 3-35-9-54-41-54-24 1-41 7-42 31l-33-3c5-37 33-52 76-52 45 0 72 20 72 64v82c-1 20 7 32 28 27v20c-31 9-61-2-59-35zM48-53c0 20 12 33 32 33 41-3 63-29 60-74-43 2-92-5-92 41"
                id="r" />
            <g id="c">
                <use transform="matrix(0.06172839506172839,0,0,0.06172839506172839,0,0)"
                    xlink:href="#o" />
                <use
                    transform="matrix(0.06172839506172839,0,0,0.06172839506172839,15.987654320987653,0)"
                    xlink:href="#p" />
                <use
                    transform="matrix(0.06172839506172839,0,0,0.06172839506172839,27.098765432098766,0)"
                    xlink:href="#i" />
                <use
                    transform="matrix(0.06172839506172839,0,0,0.06172839506172839,39.44444444444444,0)"
                    xlink:href="#q" />
                <use
                    transform="matrix(0.06172839506172839,0,0,0.06172839506172839,55.432098765432094,0)"
                    xlink:href="#r" />
                <use
                    transform="matrix(0.06172839506172839,0,0,0.06172839506172839,67.77777777777777,0)"
                    xlink:href="#p" />
                <use
                    transform="matrix(0.06172839506172839,0,0,0.06172839506172839,78.88888888888889,0)"
                    xlink:href="#i" />
            </g>
            <path fill="#1d262b" d="M15-91v-56l181-69v40L49-119l147 57v40" id="s" />
            <path fill="#1d262b" d="M25-224v-37h50v37H25zM25 0v-190h50V0H25" id="t" />
            <path fill="#1d262b"
                d="M135-194c87-1 58 113 63 194h-50c-7-57 23-157-34-157-59 0-34 97-39 157H25l-1-190h47c2 12-1 28 3 38 12-26 28-41 61-42"
                id="u" />
            <path fill="#1d262b"
                d="M115-3C79 11 28 4 28-45v-112H4v-33h27l15-45h31v45h36v33H77v99c-1 23 16 31 38 25v30"
                id="v" />
            <path fill="#1d262b"
                d="M185-48c-13 30-37 53-82 52C43 2 14-33 14-96s30-98 90-98c62 0 83 45 84 108H66c0 31 8 55 39 56 18 0 30-7 34-22zm-45-69c5-46-57-63-70-21-2 6-4 13-4 21h74"
                id="w" />
            <path fill="#1d262b"
                d="M135-150c-39-12-60 13-60 57V0H25l-1-190h47c2 13-1 29 3 40 6-28 27-53 61-41v41"
                id="x" />
            <path fill="#1d262b"
                d="M121-226c-27-7-43 5-38 36h38v33H83V0H34v-157H6v-33h28c-9-59 32-81 87-68v32"
                id="y" />
            <path fill="#1d262b"
                d="M133-34C117-15 103 5 69 4 32 3 11-16 11-54c-1-60 55-63 116-61 1-26-3-47-28-47-18 1-26 9-28 27l-52-2c7-38 36-58 82-57s74 22 75 68l1 82c-1 14 12 18 25 15v27c-30 8-71 5-69-32zm-48 3c29 0 43-24 42-57-32 0-66-3-65 30 0 17 8 27 23 27"
                id="z" />
            <path fill="#1d262b"
                d="M190-63c-7 42-38 67-86 67-59 0-84-38-90-98-12-110 154-137 174-36l-49 2c-2-19-15-32-35-32-30 0-35 28-38 64-6 74 65 87 74 30"
                id="A" />
            <path fill="#1d262b" d="M15-22v-40l146-57-146-57v-40l181 69v56" id="B" />
            <g id="d">
                <use transform="matrix(0.05,0,0,0.05,0,0)" xlink:href="#s" />
                <use transform="matrix(0.05,0,0,0.05,10.5,0)" xlink:href="#s" />
                <use transform="matrix(0.05,0,0,0.05,21,0)" xlink:href="#t" />
                <use transform="matrix(0.05,0,0,0.05,26,0)" xlink:href="#u" />
                <use transform="matrix(0.05,0,0,0.05,36.95,0)" xlink:href="#v" />
                <use transform="matrix(0.05,0,0,0.05,42.900000000000006,0)" xlink:href="#w" />
                <use transform="matrix(0.05,0,0,0.05,52.900000000000006,0)" xlink:href="#x" />
                <use transform="matrix(0.05,0,0,0.05,59.900000000000006,0)" xlink:href="#y" />
                <use transform="matrix(0.05,0,0,0.05,65.85000000000001,0)" xlink:href="#z" />
                <use transform="matrix(0.05,0,0,0.05,75.85000000000001,0)" xlink:href="#A" />
                <use transform="matrix(0.05,0,0,0.05,85.85000000000001,0)" xlink:href="#w" />
                <use transform="matrix(0.05,0,0,0.05,95.85000000000001,0)" xlink:href="#B" />
                <use transform="matrix(0.05,0,0,0.05,106.35000000000001,0)" xlink:href="#B" />
            </g>
            <path fill="#1d262b"
                d="M140-251c80 0 125 45 125 126S219 4 139 4C58 4 15-44 15-125s44-126 125-126zm-1 214c52 0 73-35 73-88 0-50-21-86-72-86-52 0-73 35-73 86s22 88 72 88"
                id="C" />
            <path fill="#1d262b"
                d="M85 4C-2 5 27-109 22-190h50c7 57-23 150 33 157 60-5 35-97 40-157h50l1 190h-47c-2-12 1-28-3-38-12 25-28 42-61 42"
                id="D" />
            <path fill="#1d262b"
                d="M135-194c53 0 70 44 70 98 0 56-19 98-73 100-31 1-45-17-59-34 3 33 2 69 2 105H25l-1-265h48c2 10 0 23 3 31 11-24 29-35 60-35zM114-30c33 0 39-31 40-66 0-38-9-64-40-64-56 0-55 130 0 130"
                id="E" />
            <path fill="#1d262b"
                d="M24-248c93 1 206-16 204 79-1 75-69 88-152 82V0H24v-248zm52 121c47 0 100 7 100-41 0-47-54-39-100-39v80"
                id="F" />
            <path fill="#1d262b"
                d="M110-194c64 0 96 36 96 99 0 64-35 99-97 99-61 0-95-36-95-99 0-62 34-99 96-99zm-1 164c35 0 45-28 45-65 0-40-10-65-43-65-34 0-45 26-45 65 0 36 10 65 43 65"
                id="G" />
            <g id="e">
                <use transform="matrix(0.05,0,0,0.05,0,0)" xlink:href="#C" />
                <use transform="matrix(0.05,0,0,0.05,14,0)" xlink:href="#D" />
                <use transform="matrix(0.05,0,0,0.05,24.950000000000003,0)" xlink:href="#v" />
                <use transform="matrix(0.05,0,0,0.05,30.900000000000002,0)" xlink:href="#E" />
                <use transform="matrix(0.05,0,0,0.05,41.85,0)" xlink:href="#D" />
                <use transform="matrix(0.05,0,0,0.05,52.800000000000004,0)" xlink:href="#v" />
                <use transform="matrix(0.05,0,0,0.05,58.75,0)" xlink:href="#F" />
                <use transform="matrix(0.05,0,0,0.05,70.75,0)" xlink:href="#G" />
                <use transform="matrix(0.05,0,0,0.05,81.7,0)" xlink:href="#x" />
                <use transform="matrix(0.05,0,0,0.05,88.7,0)" xlink:href="#v" />
            </g>
            <path fill="#1d262b" d="M24 0v-248h52V0H24" id="H" />
            <g id="f">
                <use transform="matrix(0.05,0,0,0.05,0,0)" xlink:href="#H" />
                <use transform="matrix(0.05,0,0,0.05,5,0)" xlink:href="#u" />
                <use transform="matrix(0.05,0,0,0.05,15.950000000000001,0)" xlink:href="#E" />
                <use transform="matrix(0.05,0,0,0.05,26.900000000000002,0)" xlink:href="#D" />
                <use transform="matrix(0.05,0,0,0.05,37.85,0)" xlink:href="#v" />
                <use transform="matrix(0.05,0,0,0.05,43.800000000000004,0)" xlink:href="#F" />
                <use transform="matrix(0.05,0,0,0.05,55.800000000000004,0)" xlink:href="#G" />
                <use transform="matrix(0.05,0,0,0.05,66.75,0)" xlink:href="#x" />
                <use transform="matrix(0.05,0,0,0.05,73.75,0)" xlink:href="#v" />
            </g>
        </defs>
    </g>
</svg>
